<?xml version="1.0" standalone="no"?>
<!DOCTYPE svg PUBLIC "-//W3C//DTD SVG 20010904//EN"
 "http://www.w3.org/TR/2001/REC-SVG-20010904/DTD/svg10.dtd">
<svg version="1.0" xmlns="http://www.w3.org/2000/svg"
 width="246.000000pt" height="246.000000pt" viewBox="0 0 246.000000 246.000000"
 preserveAspectRatio="xMidYMid meet">
<metadata>
Created by potrace 1.11, written by Peter Selinger 2001-2013
</metadata>
<g transform="translate(0.000000,246.000000) scale(0.100000,-0.100000)"
fill="#000000" stroke="none">
<path d="M2015 1934 c-220 -65 -216 -64 -240 -36 l-20 23 -110 -26 c-110 -26
-125 -35 -132 -79 -4 -21 -10 -31 -21 -32 -4 0 -42 -8 -84 -19 l-78 -19 -23
22 c-25 24 -26 24 -160 -9 -82 -20 -87 -23 -95 -52 -8 -29 -11 -31 -48 -29
-44 4 -316 -62 -351 -84 -28 -17 -33 -18 -33 0 0 26 -41 65 -76 72 -19 3 -63
1 -97 -6 -123 -24 -111 -28 -124 41 -17 91 -26 97 -115 75 -40 -10 -102 -27
-138 -39 -77 -26 -76 -23 -40 -197 6 -30 13 -71 16 -90 2 -19 7 -44 11 -55 3
-11 7 -29 8 -40 2 -17 32 -169 51 -255 2 -14 9 -47 14 -75 5 -27 12 -61 15
-75 3 -14 8 -43 11 -65 6 -47 28 -85 49 -85 15 0 82 17 260 66 152 42 212 64
231 85 14 15 25 18 48 13 50 -11 74 -7 225 35 80 23 148 38 152 34 6 -7 25
-92 45 -203 2 -14 9 -45 14 -70 5 -25 12 -58 15 -75 29 -179 47 -198 160 -162
107 34 254 77 262 77 5 0 10 -6 10 -14 0 -33 27 -76 58 -90 44 -21 76 -20 165
5 41 12 82 22 90 24 8 2 15 4 15 5 0 1 14 4 30 6 17 3 46 13 65 22 38 18 40
29 26 119 l-7 42 50 15 c27 8 60 20 73 27 13 7 33 12 45 10 29 -3 196 48 205
63 17 25 5 56 -65 165 l-73 114 17 96 c19 111 18 193 -6 306 -9 44 -19 91 -21
105 -6 30 -8 41 -29 145 -9 44 -18 93 -20 109 -7 51 -26 96 -40 96 -7 0 -19 2
-27 4 -7 2 -80 -16 -163 -40z m-15 -276 c10 -28 -19 -58 -56 -58 -14 0 -40 -7
-60 -15 -31 -13 -35 -13 -39 0 -3 8 -7 22 -10 30 -5 17 16 28 95 50 61 18 59
18 70 -7z m-428 -128 c3 -22 -4 -27 -67 -47 -38 -13 -85 -26 -103 -29 -33 -6
-33 -6 -30 27 3 32 6 35 68 52 36 10 76 22 90 26 30 10 38 4 42 -29z m447
-474 c12 -14 11 -86 -1 -86 -5 0 -8 3 -9 8 -1 12 -8 45 -14 69 -6 25 6 30 24
9z"/>
</g>
</svg>
