<svg xmlns="http://www.w3.org/2000/svg" xmlns:xlink="http://www.w3.org/1999/xlink" viewBox="0 0 424.92 55"><defs><style>.cls-1{fill:none;}.cls-2{clip-path:url(#clip-path);}.cls-3{fill:#fff;}.cls-4{clip-path:url(#clip-path-2);}</style><clipPath id="clip-path" transform="translate(-17 -55)"><rect class="cls-1" y="83" width="461" height="54"/></clipPath><clipPath id="clip-path-2" transform="translate(-17 -55)"><rect class="cls-1" x="3" width="461" height="83"/></clipPath></defs><title>logo_2</title><g id="Layer_2" data-name="Layer 2"><g id="Layer_1-2" data-name="Layer 1"><g class="cls-2"><path class="cls-3" d="M41,110H17V55H39.79c11.43,0,17.53,6.41,17.53,15.91a13.22,13.22,0,0,1-6,10.89c2.24,1.4,6.8,4.25,6.8,12C58.1,104.28,50.76,110,41,110ZM39.46,67H31v9h8.46c3.72,0,4.88-2.33,4.88-4.5S43.18,67,39.46,67Zm1,21H31V98h9.44c3.84,0,5.12-2.64,5.12-5S44.28,88,40.44,88Z" transform="translate(-17 -55)"/><path class="cls-3" d="M96.11,110l-2.49-8H77.09l-2.64,8H60.06l20-55H90.5l20,55ZM85.63,76.33,80.69,91h9.57Z" transform="translate(-17 -55)"/><path class="cls-3" d="M134,67v43H120V67H106V55h41V67Z" transform="translate(-17 -55)"/><path class="cls-3" d="M177,67v43H163V67H149V55h41V67Z" transform="translate(-17 -55)"/><path class="cls-3" d="M196,110V55h14v55Z" transform="translate(-17 -55)"/><path class="cls-3" d="M256,110V83.13L248.28,97h-8.56L232,83.13V110H219V55h13.21L244.5,79.26,256.79,55H270v55Z" transform="translate(-17 -55)"/><path class="cls-3" d="M279,110V55h14v55Z" transform="translate(-17 -55)"/><path class="cls-3" d="M329.72,110l-9-16.92-9,16.92H296.19l17.15-28.2L297.27,55h15.37l8,15.53,8-15.53h15.37L328,81.8,345.17,110Z" transform="translate(-17 -55)"/><path class="cls-3" d="M349,110V55h37V67H362v9h20V88H362V98h24v12Z" transform="translate(-17 -55)"/><path class="cls-3" d="M424.26,110l-2.5-8H405.24l-2.65,8H388.2l20-55h10.43l20,55ZM413.77,76.33,408.83,91h9.57Z" transform="translate(-17 -55)"/></g><g class="cls-4"><path class="cls-3" d="M44,110H20V55H42.79c11.43,0,17.53,6.41,17.53,15.91a13.22,13.22,0,0,1-6,10.89c2.24,1.4,6.8,4.25,6.8,12C61.1,104.28,53.76,110,44,110ZM42.46,67H34v9h8.46c3.72,0,4.88-2.33,4.88-4.5S46.18,67,42.46,67Zm1,21H34V98h9.44c3.84,0,5.12-2.64,5.12-5S47.28,88,43.44,88Z" transform="translate(-17 -55)"/><path class="cls-3" d="M99.39,110l-2.5-8H80.37l-2.65,8H63.33l20-55H93.77l20,55ZM88.9,76.33,84,91h9.57Z" transform="translate(-17 -55)"/><path class="cls-3" d="M137,67v43H123V67H109V55h41V67Z" transform="translate(-17 -55)"/><path class="cls-3" d="M180,67v43H166V67H152V55h41V67Z" transform="translate(-17 -55)"/><path class="cls-3" d="M199,110V55h14v55Z" transform="translate(-17 -55)"/><path class="cls-3" d="M260,110V83.13L252.28,97h-8.56L236,83.13V110H222V55h13.21L247.5,79.26,259.79,55H273v55Z" transform="translate(-17 -55)"/><path class="cls-3" d="M282,110V55h14v55Z" transform="translate(-17 -55)"/><path class="cls-3" d="M333,110l-9-16.92-9,16.92H299.46l17.15-28.2L300.54,55h15.38l8,15.53L332,55h15.37L331.29,81.8,348.44,110Z" transform="translate(-17 -55)"/><path class="cls-3" d="M352,110V55h37V67H366v9h20V88H366V98h23v12Z" transform="translate(-17 -55)"/><path class="cls-3" d="M427.53,110,425,102H408.51l-2.65,8H391.47l20-55h10.43l20,55ZM417,76.33,412.1,91h9.57Z" transform="translate(-17 -55)"/></g></g></g></svg>